<svg width="16" height="16" xmlns="http://www.w3.org/2000/svg"><path d="M14.292 15.864H1.709c-.033-.005-.067-.012-.1-.016A1.702 1.702 0 01.18 14.55c-.018-.08-.03-.16-.044-.24V1.692l.015-.088A1.7 1.7 0 011.464.177c.074-.017.151-.027.227-.04H14.31c.03.004.057.011.087.015a1.702 1.702 0 011.433 1.35c.013.068.023.137.034.206v12.584c-.011.07-.022.14-.035.21a1.702 1.702 0 01-1.292 1.319c-.081.018-.163.03-.245.043zm-1.513-11.69v-.003c.259 0 .518.005.778-.001a.63.63 0 00.604-.627v-1.49a.635.635 0 00-.637-.64h-1.487a.636.636 0 00-.637.64c0 .493-.002.985.002 1.478 0 .073.014.15.037.22.09.261.33.422.624.424h.716zM8 4.813a3.186 3.186 0 00-.073 6.372 3.194 3.194 0 003.258-3.115A3.19 3.19 0 008 4.813zm-6.162 1.7v7.025c0 .334.29.623.625.623h11.072a.636.636 0 00.626-.625V6.514h-1.5a4.92 4.92 0 01.193 2.069 4.805 4.805 0 01-.678 1.96 4.888 4.888 0 01-6.56 1.725 4.777 4.777 0 01-1.9-1.914c-.664-1.223-.77-2.508-.38-3.84H1.837z" fill="#fff" fill-rule="evenodd"/></svg>