<?xml version="1.0"?><svg fill="#ffffff" xmlns="http://www.w3.org/2000/svg"  viewBox="0 0 24 24" width="24px" height="24px">    <path d="M 12 0 C 5.3844276 0 0 5.3844276 0 12 C 0 18.615572 5.3844276 24 12 24 C 18.615572 24 24 18.615572 24 12 C 24 5.3844276 18.615572 0 12 0 z M 12 2 C 17.534692 2 22 6.4653079 22 12 C 22 17.534692 17.534692 22 12 22 C 6.4653079 22 2 17.534692 2 12 C 2 6.4653079 6.4653079 2 12 2 z M 10 4 L 10 6 L 8 6 L 8 18 L 10 18 L 10 20 L 11 20 L 11 18 L 12 18 L 12 20 L 13 20 L 13 17.980469 C 14.209519 17.930578 15.172192 17.649175 15.861328 17.113281 C 16.620328 16.522281 17 15.653859 17 14.505859 C 17 13.840859 16.819984 13.256 16.458984 12.75 C 16.106984 12.256 15.578812 11.933391 14.882812 11.775391 C 15.621813 11.226391 16 10.43 16 9.375 L 16 9.2871094 C 16 8.1941094 15.603547 7.3732187 14.810547 6.8242188 C 14.327154 6.4895619 13.714227 6.2694752 13 6.1386719 L 13 4 L 12 4 L 12 6.0253906 C 11.833177 6.0168322 11.676531 6 11.5 6 L 11 6 L 11 4 L 10 4 z M 10.410156 8 L 12 8 C 12.375 8 12.714453 8.0849375 13.064453 8.3359375 C 13.414453 8.5869375 13.589844 8.974 13.589844 9.5 C 13.589844 9.98 13.417312 10.426734 13.070312 10.677734 C 12.722312 10.927734 12.375 11 12 11 L 10.410156 11.001953 L 10.410156 8 z M 10.410156 13 L 12.814453 13 C 13.430453 13 13.881969 13.135297 14.167969 13.404297 C 14.453969 13.673297 14.597656 14.062266 14.597656 14.572266 C 14.597656 15.043266 14.42975 15.398672 14.09375 15.638672 C 13.75775 15.879672 13.271812 16 12.632812 16 L 10.410156 16 L 10.410156 13 z"/></svg>