<svg width="16" height="16" viewBox="0 0 16 16" fill="none" xmlns="http://www.w3.org/2000/svg">
<g clip-path="url(#clip0)">
<path d="M11.4286 2.85712H1.71428C0.767511 2.85712 0 3.62463 0 4.5714V14.2857C0 15.2324 0.767511 16 1.71428 16H11.4286C12.3753 16 13.1428 15.2324 13.1428 14.2857V4.5714C13.1428 3.62463 12.3753 2.85712 11.4286 2.85712Z" fill="white"/>
<path d="M14.2858 1.10693e-09H4.00005C3.0584 -3.3481e-05 2.293 0.759508 2.28577 1.70113C2.28577 1.70571 2.28577 1.7097 2.28577 1.71428H11.4286C13.0058 1.71616 14.2839 2.99424 14.2858 4.57141V13.7143C14.2903 13.7143 14.2943 13.7143 14.2989 13.7143C15.2406 13.707 16.0001 12.9416 16 12V1.71428C16 0.767511 15.2325 1.10693e-09 14.2858 1.10693e-09Z" fill="white"/>
</g>
<defs>
<clipPath id="clip0">
<rect width="16" height="16" fill="white"/>
</clipPath>
</defs>
</svg>
