<svg width="36" height="36" viewBox="0 0 36 36" fill="none" xmlns="http://www.w3.org/2000/svg">
<path d="M35.4612 22.3544C33.0569 31.9972 23.2891 37.8657 13.644 35.4611C4.00288 33.057 -1.86631 23.2899 0.53919 13.6476C2.94244 4.00361 12.7102 -1.86546 22.3525 0.538642C31.997 2.94274 37.8656 12.711 35.4612 22.3544Z" fill="#FF9900"/>
<path d="M25.3883 15.6836C25.7093 13.414 24.0754 12.1938 21.8413 11.3799L22.566 8.30538L20.7965 7.83897L20.091 10.8325C19.6258 10.7099 19.1481 10.5942 18.6733 10.4796L19.3839 7.46641L17.6155 7L16.8903 10.0734C16.5052 9.98067 16.1273 9.88902 15.7604 9.79254L15.7624 9.78298L13.3222 9.1385L12.8515 11.1374C12.8515 11.1374 14.1643 11.4556 14.1366 11.4753C14.8532 11.6645 14.9827 12.1661 14.9611 12.5638L14.1356 16.0663C14.1849 16.0797 14.249 16.0988 14.3195 16.1287C14.2606 16.1132 14.1976 16.0961 14.1326 16.0796L12.9754 20.9862C12.8878 21.2164 12.6655 21.5618 12.1645 21.4307C12.1822 21.4579 10.8784 21.0912 10.8784 21.0912L10 23.2334L12.3026 23.8406C12.731 23.9541 13.1508 24.073 13.5641 24.1849L12.8318 27.2946L14.5992 27.761L15.3245 24.6844C15.8073 24.8229 16.2759 24.9509 16.7345 25.0713L16.0119 28.1336L17.7813 28.6L18.5136 25.4962C21.5308 26.1001 23.7997 25.8565 24.7548 22.9701C25.5243 20.6461 24.7164 19.3055 23.129 18.4314C24.285 18.1494 25.1559 17.3451 25.3883 15.6836ZM21.3454 21.6796C20.7986 24.0037 17.0989 22.7473 15.8995 22.4323L16.8711 18.3125C18.0706 18.6291 21.9169 19.256 21.3454 21.6796ZM21.8927 15.65C21.3937 17.764 18.3145 16.69 17.3156 16.4266L18.1966 12.6901C19.1954 12.9534 22.4123 13.4448 21.8927 15.65Z" fill="white"/>
</svg>
