<svg width="20" height="20" viewBox="0 0 20 20" fill="none" xmlns="http://www.w3.org/2000/svg">
<g clip-path="url(#clip0)">
<path d="M10.0013 0C7.14418 0 4.80859 2.33559 4.80859 5.19275C4.80859 8.04991 7.14418 10.3855 10.0013 10.3855C12.8585 10.3855 15.1941 8.04991 15.1941 5.19275C15.1941 2.33559 12.8585 0 10.0013 0Z" fill="white"/>
<path d="M18.913 14.5352C18.7769 14.195 18.5955 13.8776 18.3915 13.5828C17.3484 12.0408 15.7384 11.0204 13.9244 10.771C13.6976 10.7483 13.4482 10.7936 13.2668 10.9297C12.3144 11.6326 11.1806 11.9954 10.0014 11.9954C8.82228 11.9954 7.68851 11.6326 6.73612 10.9297C6.5547 10.7936 6.30526 10.7256 6.07853 10.771C4.26446 11.0204 2.63183 12.0408 1.61143 13.5828C1.40735 13.8776 1.22592 14.2177 1.0899 14.5352C1.02189 14.6712 1.04454 14.8299 1.11256 14.966C1.29398 15.2835 1.52071 15.601 1.72479 15.873C2.04224 16.3039 2.38239 16.6894 2.76789 17.0522C3.08534 17.3696 3.44815 17.6644 3.81099 17.9592C5.60236 19.2971 7.75657 20 9.97879 20C12.201 20 14.3552 19.2971 16.1466 17.9592C16.5094 17.6871 16.8722 17.3696 17.1897 17.0522C17.5525 16.6894 17.9153 16.3039 18.2328 15.873C18.4595 15.5783 18.6636 15.2835 18.845 14.966C18.9583 14.8299 18.981 14.6712 18.913 14.5352Z" fill="white"/>
</g>
<defs>
<clipPath id="clip0">
<rect width="20" height="20" fill="white"/>
</clipPath>
</defs>
</svg>
