<svg width="18" height="15" xmlns="http://www.w3.org/2000/svg"><path d="M16.205 4.066c.008.148.01.297.01.446 0 4.568-3.576 9.837-10.116 9.837-2.007 0-3.877-.573-5.45-1.555a7.299 7.299 0 005.264-1.43c-1.556-.029-2.868-1.028-3.32-2.402.534.099 1.084.08 1.604-.059-1.626-.317-2.852-1.714-2.852-3.387V5.47c.48.259 1.03.414 1.61.432a3.43 3.43 0 01-1.581-2.876c0-.633.175-1.227.482-1.74A10.18 10.18 0 009.185 4.9a3.365 3.365 0 01-.094-.787c0-1.91 1.593-3.458 3.557-3.458 1.023 0 1.947.42 2.595 1.093.81-.157 2.634-.348 2.634-.348-.475.693-.976 2.178-1.672 2.667" fill="#fff" fill-rule="evenodd"/></svg>