<svg xmlns="http://www.w3.org/2000/svg" viewBox="0 0 648 360"><path d="M129.3 226.9v-17.4l9.6 8.7c-2.9 3.3-6.1 6.2-9.6 8.7zm-40.2 9.6l28.1-26.6v23.5c-6.2 2.4-12.9 3.7-19.9 3.7-2.7 0-5.5-.2-8.2-.6zm-46.5-48.6l29.5 26.5 29.7-27.9 15.3-14.5v21.4l-41.6 39.3c-17.8-7.8-30.8-24.7-32.9-44.8zm23.4-51v17.5l-9.8-8.8c2.9-3.3 6.2-6.2 9.8-8.7zm0 55.8l-22.8-20.5c1.1-6 3.1-11.6 6-16.7l16.8 15v22.2zm39.8-65l-12.4 11.7L78 153.9v-23.4c6-2.3 12.5-3.5 19.3-3.5 2.9 0 5.7.3 8.5.7zm45.7 64.1c-1 5.9-3 11.4-5.8 16.5l-16.5-15v-21.7l22.3 20.2zm.6-15.8l-28.9-26.2-29.5 27.9-15.5 14.6v-21.8l23.6-22.3 17.6-16.6c17.5 7.7 30.5 24.4 32.7 44.4zm-7.3-41.4C132.1 122 115.3 115 97.4 115s-34.8 7-47.4 19.6c-12.7 12.7-19.6 29.5-19.6 47.4s7 34.8 19.6 47.4C62.7 242.1 79.5 249 97.4 249s34.8-7 47.4-19.6c12.7-12.7 19.6-29.5 19.6-47.4 0-17.8-6.9-34.7-19.6-47.4z" fill="#50b84d"/><path d="M326 202.2c-10 0-18-8.1-18-18 0-10 8.1-18.1 18-18.1 6.9 0 13 3.9 16 9.7v16.7c-3 5.8-9 9.7-16 9.7zm31.1-43.7c0-4.2-3.4-7.6-7.6-7.6-3.1 0-5.7 1.8-6.9 4.5-4.9-2.9-10.6-4.5-16.6-4.5-18.3 0-33.2 14.9-33.2 33.2s14.9 33.2 33.2 33.2c6.1 0 11.7-1.6 16.6-4.5 1.2 2.6 3.8 4.5 6.9 4.5 4.2 0 7.6-3.4 7.6-7.6v-51.2zM577 217.3c-4.2 0-7.6-3.4-7.6-7.6v-51.2c0-4.2 3.4-7.6 7.6-7.6s7.6 3.4 7.6 7.6v51.2c-.1 4.2-3.4 7.6-7.6 7.6zm-123.6-15.1c-10 0-18-8.1-18-18 0-10 8.1-18.1 18-18.1 6.9 0 13 3.9 16 9.7v16.7c-3.1 5.8-9.1 9.7-16 9.7zm31.1-43.7c0-4.2-3.4-7.6-7.6-7.6-3.1 0-5.7 1.8-6.9 4.5-4.9-2.9-10.6-4.5-16.6-4.5-18.3 0-33.2 14.9-33.2 33.2s14.9 33.2 33.2 33.2c6.1 0 11.7-1.6 16.6-4.5 1.2 2.6 3.8 4.5 6.9 4.5 4.2 0 7.6-3.4 7.6-7.6v-51.2zm42.4 43.7c-6.9 0-13-3.9-16-9.7v-16.7c3-5.8 9.1-9.7 16-9.7 10 0 18 8.1 18 18.1 0 9.9-8.1 18-18 18zm0-51.2c-5.8 0-11.2 1.5-16 4.1v-24.6c0-4.2-3.4-7.6-7.6-7.6-4.2 0-7.6 3.4-7.6 7.6v79.2c0 4.2 3.4 7.6 7.6 7.6 3.1 0 5.7-1.8 6.9-4.5 4.9 2.9 10.6 4.5 16.6 4.5 18.3 0 33.2-14.9 33.2-33.2S545.2 151 526.9 151zm60.6-19.3c0 5.8-4.7 10.5-10.5 10.5s-10.5-4.7-10.5-10.5 4.7-10.5 10.5-10.5c5.8-.1 10.5 4.7 10.5 10.5zm-301.1 18.7c-3.7-1.5-8.1 0-10.1 3.4-.4.6-.6 1.3-.8 2-.3 1.3-.7 2.6-1.2 3.9l-12.9 30.5-13.4-31.5c-1.2-2.8-3.9-4.6-6.9-4.6-3 0-5.7 1.8-6.9 4.6l-13.7 31.7-13-30.4c-.5-1.2-1-2.5-1.3-3.8-.6-2.9-2.8-5.4-6.1-6.2-3.4-.8-6.9.7-8.7 3.7-1.7 2.8-1.4 6.1.2 8.5.8 1.3 1.6 2.6 2.1 4l19.5 46.4c1.2 2.8 3.9 4.6 6.9 4.7h.1c3 0 5.7-1.8 6.9-4.6l13.8-31.9 13.5 31.9c1.2 2.8 3.9 4.6 7 4.6 3 0 5.8-1.9 6.9-4.7l19.5-46.4c.6-1.5 1.4-2.8 2.2-4.2.2-.3.4-.7.5-1.1 2-4 0-8.8-4.1-10.5zm105.5 26.2c-1.7-.1-10.1-1-10.1-4.8 0-5.2 5.6-5.8 8.1-5.8 5.1 0 7.4 1.9 7.8 2.3 1.4 1.6 3.4 2.6 5.7 2.6 4.2 0 7.6-3.4 7.6-7.6 0-1.7-.6-3.3-1.6-4.6-.6-.8-6.6-7.8-19.5-7.8-13.6 0-23.2 8.6-23.2 20.9 0 4.2 1.7 18.1 24 19.8 3.1.2 8.2 1.3 8.2 5.4 0 5-8.7 5.1-9.1 5.1-7 0-11-2.7-11.6-3.2-1.3-1.2-3.1-1.9-5-1.9-4.2 0-7.5 3.4-7.5 7.5 0 2.4 1.1 4.5 2.9 5.9.8.7 8.3 6.7 21.3 6.7 3.1 0 9.1-.5 14.7-3.7 6.2-3.6 9.6-9.5 9.6-16.5-.1-11.2-8.8-19.2-22.3-20.3zm211.4-50.5c0 3.4-1.8 5-4.9 5-3 0-4.9-1.6-4.9-5s1.8-5 4.9-5c3.1 0 4.9 1.6 4.9 5zm-1.1 0c0-2.9-1.4-4.1-3.8-4.1s-3.8 1.2-3.8 4.1c0 2.8 1.3 4.1 3.8 4.1 2.4 0 3.8-1.3 3.8-4.1zm-4.7.7v1.5c0 .3-.2.5-.5.5s-.5-.2-.5-.5V124c0-.2.2-.4.4-.4h1.9c1 0 1.7.8 1.7 1.6 0 1-.6 1.6-1.3 1.6l1.1 1.2c.1.1.1.2.1.3 0 .3-.2.5-.5.5-.2 0-.3-.1-.4-.2l-1.3-1.7h-.7zm1.2-.9c.5 0 .8-.3.8-.8 0-.4-.3-.8-.8-.8h-1.2v1.5h1.2z" fill="#fff"/></svg>